<?xml version="1.0" standalone="no"?>
<!DOCTYPE svg PUBLIC "-//W3C//DTD SVG 20010904//EN"
 "http://www.w3.org/TR/2001/REC-SVG-20010904/DTD/svg10.dtd">
<svg version="1.0" xmlns="http://www.w3.org/2000/svg"
 width="377.000000pt" height="325.000000pt" viewBox="0 0 377.000000 325.000000"
 preserveAspectRatio="xMidYMid meet">
<metadata>
Created by potrace 1.16, written by Peter Selinger 2001-2019
</metadata>
<g transform="translate(0.000000,325.000000) scale(0.100000,-0.100000)"
fill="#000000" stroke="none">
<path d="M1458 3212 l-68 -37 0 -662 c0 -575 2 -663 15 -663 8 0 53 -20 100
-44 l85 -44 2 608 3 608 190 -120 c245 -155 543 -344 1040 -657 220 -139 406
-259 413 -266 11 -10 -26 -37 -205 -150 -120 -76 -310 -197 -423 -268 -113
-71 -260 -164 -327 -206 l-123 -76 0 -117 c0 -65 4 -118 9 -118 5 0 72 40 148
88 76 49 251 160 388 247 363 230 650 412 728 461 l67 44 0 87 -1 88 -192 121
c-194 123 -646 410 -1363 865 -216 137 -398 249 -405 249 -8 0 -44 -17 -81
-38z"/>
<path d="M1077 1689 c-123 -29 -253 -134 -312 -251 -19 -39 -35 -77 -35 -85 0
-8 -39 24 -87 71 l-88 85 -67 -67 c-38 -36 -68 -71 -68 -77 0 -5 48 -58 107
-117 84 -85 105 -110 95 -120 -8 -8 -12 -45 -12 -105 l0 -93 -95 0 -95 0 0
-105 0 -105 95 0 94 0 7 -37 c4 -21 15 -62 26 -92 l18 -55 -89 -90 c-119 -123
-151 -157 -151 -165 0 -4 32 -38 70 -76 l70 -70 104 104 105 104 54 -49 c67
-62 173 -119 258 -139 185 -43 377 18 515 165 l29 30 107 -107 108 -108 72 73
73 72 -126 127 -127 128 15 35 c8 19 21 62 27 95 l13 60 96 3 97 3 0 99 0 100
-95 0 -95 0 0 92 c0 66 -4 96 -15 108 -13 14 -3 27 95 125 l110 110 -72 72
-73 73 -81 -81 -81 -81 -36 77 c-61 129 -166 217 -306 259 -59 17 -190 20
-254 5z m237 -218 c23 -10 55 -30 73 -45 38 -32 93 -137 93 -178 l0 -28 -285
0 -286 0 7 38 c33 182 230 288 398 213z m264 -633 c-5 -212 -18 -255 -108
-352 -94 -100 -217 -153 -314 -135 -95 18 -210 92 -264 172 -60 88 -75 147
-80 325 l-4 162 387 0 387 0 -4 -172z"/>
</g>
</svg>
