<?xml version="1.0" standalone="no"?>
<!DOCTYPE svg PUBLIC "-//W3C//DTD SVG 20010904//EN"
 "http://www.w3.org/TR/2001/REC-SVG-20010904/DTD/svg10.dtd">
<svg version="1.0" xmlns="http://www.w3.org/2000/svg"
 width="325.000000pt" height="320.000000pt" viewBox="0 0 325.000000 320.000000"
 preserveAspectRatio="xMidYMid meet">
<metadata>
Created by potrace 1.16, written by Peter Selinger 2001-2019
</metadata>
<g transform="translate(0.000000,320.000000) scale(0.100000,-0.100000)"
fill="#000000" stroke="none">
<path d="M1350 3090 c-340 -73 -601 -276 -750 -584 -148 -307 -144 -649 9
-943 48 -91 101 -162 226 -301 98 -109 166 -223 206 -347 21 -64 23 -95 29
-380 6 -296 7 -312 29 -363 29 -65 104 -134 168 -156 68 -23 528 -23 596 0 64
22 139 91 168 156 22 51 23 68 30 363 7 340 11 369 74 501 41 85 95 158 205
279 155 169 235 316 275 506 49 230 19 469 -85 685 -147 304 -419 517 -748
584 -129 26 -312 26 -432 0z m443 -214 c322 -95 555 -345 624 -671 21 -101 13
-306 -17 -400 -44 -138 -103 -232 -262 -410 -156 -175 -239 -340 -270 -536
l-12 -79 -291 0 -291 0 -12 79 c-31 196 -114 361 -270 536 -159 178 -218 272
-262 410 -31 99 -39 291 -15 406 70 350 356 623 722 689 86 16 259 4 356 -24z
m57 -2452 c0 -87 -4 -164 -10 -175 -24 -43 -57 -49 -275 -49 -218 0 -251 6
-275 49 -6 11 -10 88 -10 175 l0 156 285 0 285 0 0 -156z"/>
</g>
</svg>
