<?xml version="1.0" standalone="no"?>
<!DOCTYPE svg PUBLIC "-//W3C//DTD SVG 20010904//EN"
 "http://www.w3.org/TR/2001/REC-SVG-20010904/DTD/svg10.dtd">
<svg version="1.0" xmlns="http://www.w3.org/2000/svg"
 width="315.000000pt" height="318.000000pt" viewBox="0 0 315.000000 318.000000"
 preserveAspectRatio="xMidYMid meet">
<metadata>
Created by potrace 1.16, written by Peter Selinger 2001-2019
</metadata>
<g transform="translate(0.000000,318.000000) scale(0.100000,-0.100000)"
fill="#000000" stroke="none">
<path d="M1335 3160 c-216 -49 -400 -153 -548 -309 -252 -267 -351 -645 -262
-997 44 -175 129 -322 277 -481 131 -142 190 -236 241 -388 17 -53 20 -98 27
-375 6 -288 8 -319 27 -361 29 -64 77 -115 137 -147 l51 -27 280 0 280 0 51
27 c60 32 108 83 137 147 19 42 21 72 27 361 6 310 7 316 34 395 15 44 43 108
62 142 39 70 131 189 188 243 84 79 182 234 231 364 73 194 82 432 24 646 -27
99 -115 278 -178 361 -158 208 -384 349 -649 404 -104 21 -333 19 -437 -5z
m393 -196 c254 -52 474 -212 595 -434 75 -137 107 -259 107 -412 0 -239 -72
-409 -261 -615 -179 -195 -280 -389 -304 -588 l-7 -55 -292 0 -291 0 -18 97
c-32 174 -113 336 -238 480 -185 210 -220 259 -266 373 -59 148 -71 348 -29
512 86 337 381 604 721 651 73 10 212 6 283 -9z m122 -2464 c0 -234 5 -230
-285 -230 -290 0 -285 -4 -285 230 l0 150 285 0 285 0 0 -150z"/>
</g>
</svg>
