<?xml version="1.0" standalone="no"?>
<!DOCTYPE svg PUBLIC "-//W3C//DTD SVG 20010904//EN"
 "http://www.w3.org/TR/2001/REC-SVG-20010904/DTD/svg10.dtd">
<svg version="1.0" xmlns="http://www.w3.org/2000/svg"
 width="341.000000pt" height="327.000000pt" viewBox="0 0 341.000000 327.000000"
 preserveAspectRatio="xMidYMid meet">
<metadata>
Created by potrace 1.16, written by Peter Selinger 2001-2019
</metadata>
<g transform="translate(0.000000,327.000000) scale(0.100000,-0.100000)"
fill="#000000" stroke="none">
<path d="M2142 3047 l-92 -92 0 -495 0 -495 98 -98 97 -97 485 0 485 0 98 98
97 97 0 495 0 495 -93 93 -92 92 -495 0 -495 0 -93 -93z m1068 -587 l0 -480
-480 0 -480 0 0 480 0 480 480 0 480 0 0 -480z"/>
<path d="M397 2462 l-97 -97 0 -1070 0 -1070 98 -98 97 -97 1075 0 1075 0 93
93 92 92 0 495 0 495 -98 98 -97 97 -483 0 -482 0 0 483 0 482 -98 98 -97 97
-490 0 -490 0 -98 -98z m1063 -582 l0 -480 -480 0 -480 0 0 480 0 480 480 0
480 0 0 -480z m0 -1170 l0 -480 -480 0 -480 0 0 480 0 480 480 0 480 0 0 -480z
m1170 0 l0 -480 -480 0 -480 0 0 480 0 480 480 0 480 0 0 -480z"/>
</g>
</svg>
