<?xml version="1.0" standalone="no"?>
<!DOCTYPE svg PUBLIC "-//W3C//DTD SVG 20010904//EN"
 "http://www.w3.org/TR/2001/REC-SVG-20010904/DTD/svg10.dtd">
<svg version="1.0" xmlns="http://www.w3.org/2000/svg"
 width="327.000000pt" height="325.000000pt" viewBox="0 0 327.000000 325.000000"
 preserveAspectRatio="xMidYMid meet">
<metadata>
Created by potrace 1.16, written by Peter Selinger 2001-2019
</metadata>
<g transform="translate(0.000000,325.000000) scale(0.100000,-0.100000)"
fill="#000000" stroke="none">
<path d="M843 3125 c-158 -43 -286 -168 -334 -327 -18 -58 -21 -88 -17 -173 4
-92 8 -110 41 -178 58 -123 151 -209 272 -253 l60 -22 3 -586 c2 -464 0 -587
-10 -590 -163 -47 -293 -160 -349 -303 -34 -88 -38 -246 -9 -333 29 -86 69
-148 140 -214 96 -88 193 -125 330 -126 138 0 253 45 348 138 241 235 174 651
-126 796 l-70 33 36 48 c46 61 114 110 186 136 49 17 84 19 303 19 280 0 344
9 458 63 119 57 229 169 275 279 21 52 24 54 73 66 301 71 458 412 321 692
-65 132 -192 232 -332 261 -79 16 -213 6 -285 -21 -329 -125 -416 -571 -159
-812 52 -49 122 -93 164 -103 l28 -7 -18 -30 c-28 -48 -108 -117 -170 -146
-56 -27 -60 -27 -347 -34 -299 -7 -338 -12 -435 -55 -25 -11 -65 -34 -90 -51
l-45 -31 -3 447 c-1 246 0 453 3 460 2 6 12 12 21 12 33 0 145 62 198 110 124
114 179 267 156 432 -34 243 -238 419 -484 417 -44 0 -105 -7 -133 -14z m249
-213 c131 -57 199 -215 153 -353 -24 -70 -101 -149 -169 -172 -79 -27 -152
-22 -224 14 -130 64 -188 196 -147 334 22 76 107 166 181 189 61 20 146 15
206 -12z m1361 -584 c59 -26 130 -102 151 -165 80 -235 -167 -457 -387 -349
-175 85 -220 298 -95 441 87 99 207 126 331 73z m-1377 -1545 c68 -23 145
-102 169 -172 72 -219 -130 -430 -350 -366 -83 24 -166 108 -190 190 -23 78
-15 150 23 218 31 55 103 118 156 135 49 16 138 14 192 -5z"/>
</g>
</svg>
