<?xml version="1.0" standalone="no"?>
<!DOCTYPE svg PUBLIC "-//W3C//DTD SVG 20010904//EN"
 "http://www.w3.org/TR/2001/REC-SVG-20010904/DTD/svg10.dtd">
<svg version="1.0" xmlns="http://www.w3.org/2000/svg"
 width="301.000000pt" height="320.000000pt" viewBox="0 0 301.000000 320.000000"
 preserveAspectRatio="xMidYMid meet">
<metadata>
Created by potrace 1.16, written by Peter Selinger 2001-2019
</metadata>
<g transform="translate(0.000000,320.000000) scale(0.100000,-0.100000)"
fill="#000000" stroke="none">
<path d="M820 3193 c-14 -3 -59 -21 -100 -40 -101 -48 -175 -123 -225 -228
-34 -70 -39 -89 -43 -176 -3 -59 0 -118 8 -150 32 -137 137 -266 264 -324 41
-19 82 -35 90 -35 14 0 16 -61 16 -589 l0 -589 -60 -20 c-114 -39 -224 -132
-275 -232 -44 -88 -58 -155 -53 -266 4 -91 8 -109 41 -179 148 -310 544 -382
793 -144 102 99 148 210 147 359 -1 188 -109 361 -274 438 -32 15 -59 32 -59
39 0 27 104 124 168 155 l66 33 286 6 c314 6 364 14 475 72 88 46 203 164 246
254 31 66 37 72 71 78 70 12 177 72 239 134 239 239 168 643 -138 789 -78 37
-79 37 -208 37 -129 0 -130 0 -208 -37 -368 -176 -373 -707 -7 -882 l71 -34
-43 -54 c-24 -29 -65 -68 -92 -85 -84 -57 -122 -63 -395 -63 -318 0 -402 -18
-536 -110 l-45 -31 0 461 c0 444 1 460 19 460 10 0 55 18 99 40 236 118 332
404 218 647 -84 176 -242 275 -438 272 -51 -1 -104 -4 -118 -6z m236 -221 c62
-32 97 -65 129 -124 26 -46 30 -63 30 -133 0 -70 -4 -87 -30 -133 -32 -59 -66
-91 -129 -125 -59 -31 -184 -31 -243 1 -177 93 -215 315 -79 455 82 85 222
110 322 59z m1322 -567 c113 -34 202 -156 202 -279 0 -106 -86 -226 -188 -260
-136 -47 -277 8 -347 135 -26 47 -30 64 -30 134 0 98 20 141 96 209 79 71 166
91 267 61z m-1328 -1567 c64 -27 126 -92 150 -156 39 -104 19 -207 -56 -291
-115 -128 -304 -127 -419 1 -95 106 -98 262 -8 368 86 100 212 130 333 78z"/>
</g>
</svg>
